<svg id="Capa_1" enable-background="new 0 0 511.815 511.815" height="512" viewBox="0 0 511.815 511.815" width="512" xmlns="http://www.w3.org/2000/svg"><g><path d="m60.353 338.343h285.486c4.141 0 7.497-3.357 7.497-7.497 0-4.141-3.357-7.497-7.497-7.497h-285.486c-4.141 0-7.497 3.357-7.497 7.497s3.356 7.497 7.497 7.497z"/><path d="m60.353 382.222h285.486c4.141 0 7.497-3.357 7.497-7.497 0-4.141-3.357-7.497-7.497-7.497h-285.486c-4.141 0-7.497 3.357-7.497 7.497s3.356 7.497 7.497 7.497z"/><path d="m60.353 426.104h142.743c4.141 0 7.497-3.357 7.497-7.497 0-4.141-3.357-7.497-7.497-7.497h-142.743c-4.141 0-7.497 3.357-7.497 7.497s3.356 7.497 7.497 7.497z"/><path d="m505.945 138.884c0-8.526-3.32-16.548-9.359-22.601-6.042-6.028-14.061-9.347-22.579-9.347h-18.863c-4.141 0-7.497 3.357-7.497 7.497s3.357 7.497 7.497 7.497h18.863c4.52 0 8.777 1.764 11.976 4.956 3.203 3.21 4.967 7.471 4.967 11.998 0 9.343-7.601 16.944-16.943 16.944h-9.617c-4.141 0-7.497 3.357-7.497 7.497s3.357 7.497 7.497 7.497c9.164 0 16.766 7.456 16.945 16.616.084 4.45-1.637 8.701-4.847 11.973-3.31 3.373-7.895 5.308-12.578 5.308h-9.137c-4.141 0-7.497 3.357-7.497 7.497 0 4.141 3.357 7.497 7.497 7.497 9.164 0 16.766 7.456 16.945 16.616.084 4.45-1.637 8.702-4.847 11.973-3.31 3.373-7.895 5.308-12.578 5.308h-11.266c-4.141 0-7.497 3.357-7.497 7.497 0 4.141 3.357 7.497 7.497 7.497 3.633 0 7.028 1.434 9.559 4.038 2.525 2.597 3.86 6.027 3.758 9.663-.195 7.14-6.362 12.95-13.748 12.95h-96.894c-27.071 0-49.098-22.004-49.14-49.065l-.002-131.758c0-11.674 5.803-22.538 15.524-29.061 2.075-1.392 3.32-3.727 3.32-6.225v-38.606c0-6.907 2.711-13.377 7.633-18.217 4.921-4.839 11.424-7.441 18.354-7.324 13.837.229 25.095 11.929 25.095 26.081v56.699c0 13.317 10.839 24.151 24.161 24.151h34.507c4.141 0 7.497-3.357 7.497-7.497s-3.357-7.497-7.497-7.497h-34.507c-5.054 0-9.167-4.108-9.167-9.156v-56.7c0-22.284-17.873-40.71-39.84-41.074-10.981-.19-21.307 3.945-29.117 11.626-7.812 7.682-12.114 17.949-12.114 28.908v28.49l-162.551-.004c-14.648 0-28.419 5.704-38.777 16.062l-77.151 77.151c-10.356 10.358-16.06 24.13-16.06 38.778l.001 265.425c0 25.019 20.354 45.373 45.373 45.373h28.859c4.141 0 7.497-3.357 7.497-7.497 0-4.141-3.357-7.497-7.497-7.497h-28.859c-16.751 0-30.378-13.628-30.378-30.379v-257.335c0-11.139 9.063-20.202 20.202-20.202h39.305c25.019 0 45.373-20.354 45.373-45.373v-39.305c0-11.14 9.063-20.202 20.202-20.202h145.96c-6.615 8.611-10.34 19.244-10.34 30.409v.395c-6.151-4.564-13.76-7.269-21.991-7.269-20.395 0-36.987 16.592-36.987 36.987v111.07h-83.327c-4.141 0-7.497 3.357-7.497 7.497s3.357 7.497 7.497 7.497h84.356c3.903 16.239 18.538 28.346 35.957 28.346 13.659 0 25.603-7.447 32.008-18.489 11.394 17.885 31.386 29.783 54.118 29.783h33.178v156.192c0 16.751-13.628 30.379-30.379 30.379h-238.409c-4.141 0-7.497 3.357-7.497 7.497 0 4.141 3.357 7.497 7.497 7.497h238.411c25.019 0 45.373-20.354 45.373-45.373v-156.193h48.722c15.431 0 28.322-12.352 28.736-27.529.167-5.977-1.5-11.701-4.759-16.546 4.096-1.673 7.86-4.171 10.999-7.37 6.053-6.169 9.298-14.252 9.136-22.764-.149-7.63-3.03-14.634-7.689-20.073 3.001-1.571 5.768-3.608 8.169-6.055 6.053-6.169 9.297-14.252 9.136-22.763-.148-7.569-2.983-14.519-7.574-19.94 10.209-5.336 17.193-16.031 17.193-28.326zm-395.193-34.658v39.305c0 16.751-13.628 30.379-30.379 30.379h-39.305c-3.9 0-7.65.647-11.159 1.824.823-.999 1.698-1.965 2.626-2.893l77.151-77.151c.927-.927 1.891-1.801 2.89-2.623-1.177 3.51-1.824 7.259-1.824 11.159zm170.818 157.743c0 12.127-9.866 21.992-21.993 21.992s-21.992-9.865-21.992-21.992v-117.423c0-12.127 9.866-21.992 21.993-21.992 12.101 0 21.948 9.824 21.99 21.915z"/></g></svg>