<?xml version="1.0" encoding="UTF-8" standalone="no"?>
<svg
   xmlns:dc="http://purl.org/dc/elements/1.1/"
   xmlns:cc="http://creativecommons.org/ns#"
   xmlns:rdf="http://www.w3.org/1999/02/22-rdf-syntax-ns#"
   xmlns:svg="http://www.w3.org/2000/svg"
   xmlns="http://www.w3.org/2000/svg"
   xmlns:sodipodi="http://sodipodi.sourceforge.net/DTD/sodipodi-0.dtd"
   xmlns:inkscape="http://www.inkscape.org/namespaces/inkscape"
   width="87.372513mm"
   height="64.068771mm"
   viewBox="0 0 87.372513 64.068771"
   version="1.1"
   id="svg8"
   inkscape:version="1.0.1 (3bc2e813f5, 2020-09-07)"
   sodipodi:docname="drawing.svg">
  <defs
     id="defs2">
    <style
       type="text/css"
       id="style120"><![CDATA[
    .fil0 {fill:black;fill-rule:nonzero}
   ]]></style>
  </defs>
  <sodipodi:namedview
     id="base"
     pagecolor="#ffffff"
     bordercolor="#666666"
     borderopacity="1.0"
     inkscape:pageopacity="0.0"
     inkscape:pageshadow="2"
     inkscape:zoom="0.45501133"
     inkscape:cx="-10.956625"
     inkscape:cy="376.73646"
     inkscape:document-units="mm"
     inkscape:current-layer="layer1"
     inkscape:document-rotation="0"
     showgrid="false"
     inkscape:window-width="1366"
     inkscape:window-height="705"
     inkscape:window-x="-8"
     inkscape:window-y="-8"
     inkscape:window-maximized="1" />
  <metadata
     id="metadata5">
    <rdf:RDF>
      <cc:Work
         rdf:about="">
        <dc:format>image/svg+xml</dc:format>
        <dc:type
           rdf:resource="http://purl.org/dc/dcmitype/StillImage" />
        <dc:title />
      </cc:Work>
    </rdf:RDF>
  </metadata>
  <g
     inkscape:label="Layer 1"
     inkscape:groupmode="layer"
     id="layer1"
     style="opacity:1"
     transform="translate(-18.587545,-73.646129)">
    <rect
       style="fill:#008000;fill-opacity:1;stroke-width:0.23847"
       id="rect138"
       width="76.859505"
       height="17.105249"
       x="23.272779"
       y="117.72139" />
  </g>
  <g
     inkscape:groupmode="layer"
     id="layer2"
     inkscape:label="Layer 2"
     transform="translate(-18.587545,-73.646129)">
    <g
       style="clip-rule:evenodd;opacity:1;fill:#352517;fill-opacity:1;fill-rule:evenodd;image-rendering:optimizeQuality;shape-rendering:geometricPrecision;text-rendering:geometricPrecision"
       id="g136"
       transform="matrix(0.36698804,0,0,0.36698804,12.561601,55.968315)">
      <path
         class="fil0"
         d="m 176.21,168.27 c -18.09,0 -32.82,-14.72 -32.82,-32.82 0,-18.06 14.73,-32.79 32.82,-32.79 h 62.41 v 65.61 z m -1.07,-40.75 c -4.37,0 -7.93,3.56 -7.93,7.93 0,4.39 3.56,7.93 7.93,7.93 4.37,0 7.93,-3.54 7.93,-7.93 0,-4.37 -3.56,-7.93 -7.93,-7.93 z M 218.45,48.17 H 51.69 c -4.39,0 -7.93,3.56 -7.93,7.93 0,4.37 3.54,7.93 7.93,7.93 h 166.76 c 11.12,0 20.17,9.05 20.17,20.2 v 2.56 h -62.41 c -26.84,0 -48.69,21.82 -48.69,48.66 0,26.85 21.85,48.69 48.69,48.69 h 62.41 v 2.56 c 0,11.13 -9.05,20.18 -20.17,20.18 H 52.46 c -11.12,0 -20.17,-9.05 -20.17,-20.18 V 83.44 c 0,-4.39 -3.55,-7.94 -7.93,-7.94 -4.39,0 -7.94,3.55 -7.94,7.94 V 186.7 c 0,19.89 16.17,36.05 36.04,36.05 h 165.99 c 19.87,0 36.05,-16.16 36.05,-36.05 V 84.23 c 0,-19.9 -16.18,-36.06 -36.05,-36.06 z"
         id="path124"
         style="fill:#352517;fill-opacity:1" />
    </g>
  </g>
</svg>
